<svg width="417.44378662109375px" height="144.2px" xmlns="http://www.w3.org/2000/svg" viewBox="41.278106689453125 2.9000000000000057 417.44378662109375 144.2" style="background: none;" preserveAspectRatio="xMidYMid"><defs><filter id="editing-hover" x="-100%" y="-100%" width="300%" height="300%"><feFlood flood-color="#3d3232" result="flood"></feFlood><feComposite operator="in" in2="SourceAlpha" in="flood" result="shadow"></feComposite><feOffset dx="-4" dy="-4" in="SourceGraphic" result="offset-1"></feOffset><feOffset dx="4" dy="4" in="shadow" result="offset-2"></feOffset><feMerge><feMergeNode in="offset-2"></feMergeNode><feMergeNode in="offset-1"></feMergeNode></feMerge></filter></defs><g filter="url(#editing-hover)"><g transform="translate(102.87499237060547, 99.00000190734863)"><path d="M31-20L4-48L12-48L34-24.50L56-48L64-48L37-20L37 0L31 0L31-20ZM127.75 0L121.75-11L83.75-11L77.75 0L70.75 0L98.75-48L106.75-48L134.75 0L127.75 0ZM86.75-16L118.75-16L102.75-44L86.75-16ZM177.69 0L148.75-44L148.75 0L142.75 0L142.75-48L152.75-48L180.72-6L208.69-48L218.25-48L218.25 0L212.25 0L212.25-43.34L183.75 0L177.69 0ZM283.25 0L277.25-11L239.25-11L233.25 0L226.25 0L254.25-48L262.25-48L290.25 0L283.25 0ZM242.25-16L274.25-16L258.25-44L242.25-16Z" fill="#cc4619"></path></g></g><style>text {
  font-size: 64px;
  font-family: Arial Black;
  dominant-baseline: central;
  text-anchor: middle;
}</style></svg>